<?xml version="1.0" encoding="UTF-8" standalone="no"?>
<!-- Created with Inkscape (http://www.inkscape.org/) -->

<svg
   xmlns:dc="http://purl.org/dc/elements/1.1/"
   xmlns:cc="http://creativecommons.org/ns#"
   xmlns:rdf="http://www.w3.org/1999/02/22-rdf-syntax-ns#"
   xmlns:svg="http://www.w3.org/2000/svg"
   xmlns="http://www.w3.org/2000/svg"
   xmlns:sodipodi="http://sodipodi.sourceforge.net/DTD/sodipodi-0.dtd"
   xmlns:inkscape="http://www.inkscape.org/namespaces/inkscape"
   preserveAspectRatio="xMinYMin meet"
   viewBox="0 0 248.31501 91.53671"
   height="100%"
   width="100%"
   id="svg9494"
   version="1.1"
   inkscape:version="0.48.4 r9939"
   sodipodi:docname="oVirt_logo.svg">
  <defs
     id="defs9496" />
  <sodipodi:namedview
     id="base"
     pagecolor="#ffffff"
     bordercolor="#666666"
     borderopacity="1.0"
     inkscape:pageopacity="0.0"
     inkscape:pageshadow="2"
     inkscape:zoom="1.979899"
     inkscape:cx="30.237782"
     inkscape:cy="-5.5088243"
     inkscape:document-units="px"
     inkscape:current-layer="layer1"
     showgrid="false"
     fit-margin-top="2"
     fit-margin-left="2"
     fit-margin-right="2"
     fit-margin-bottom="2"
     inkscape:window-width="1920"
     inkscape:window-height="1042"
     inkscape:window-x="0"
     inkscape:window-y="0"
     inkscape:window-maximized="1" />
  <metadata
     id="metadata9499">
    <rdf:RDF>
      <cc:Work
         rdf:about="">
        <dc:format>image/svg+xml</dc:format>
        <dc:type
           rdf:resource="http://purl.org/dc/dcmitype/StillImage" />
        <dc:title />
      </cc:Work>
    </rdf:RDF>
  </metadata>
  <g
     inkscape:label="Layer 1"
     inkscape:groupmode="layer"
     id="layer1"
     transform="translate(-485.00268,-260.93395)">
    <g
       style="display:inline"
       inkscape:label="art"
       transform="matrix(3.1241777,0,0,3.1241777,267.59996,1968.7351)"
       id="g86">
      <g
         id="g6151">
        <path
           style="fill:#74c227;fill-opacity:0.75294118"
           id="path92"
           inkscape:connector-curvature="0"
           d="m 80.268575,-537.46249 c -5.545479,0 -10.041226,4.35458 -10.041226,9.72269 0,5.36811 4.495747,9.71182 10.041226,9.71182 5.545478,0 10.030366,-4.34371 10.030366,-9.71182 0,-5.36811 -4.484888,-9.72269 -10.030366,-9.72269 z m 0,1.53912 c 3.505017,0 6.341826,3.67045 6.341826,8.18429 0,4.51385 -2.835361,8.17343 -6.341826,8.17343 -3.505018,0 -6.352686,-3.65596 -6.352686,-8.17343 0,-4.51384 2.847306,-8.18429 6.352686,-8.18429 z" />
        <path
           inkscape:connector-curvature="0"
           d="m 148.42873,-535.43542 0,-1.50076 -5.788,0 0,-7.20333 -0.64323,0 c -0.51473,2.57257 -1.24339,5.48757 -2.74415,7.20333 h -3.2158 v 1.50076 h 3.2158 v 13.20852 c 0,3.81523 3.04459,4.24598 4.37268,4.24598 l 4.45955,-1.9297 h -2.14399 c -1.71504,0 -3.30159,-0.90059 -3.30159,-3.77179 v -11.74975 h 5.78801 m -21.93505,-1.99413 -6.045,0.94331 c 1.41496,0.98638 3.04458,1.97241 3.04458,2.87301 v 15.17767 h 3.47316 v -12.13345 c 0,-2.91572 1.71505,-3.90211 2.87301,-3.90211 0.72902,0 1.45804,-0.12864 2.87301,0.51473 0.51436,0.42894 0.47165,1.54347 0.64323,1.54347 l 1.75812,-3.17309 c 0,-0.8148 -0.51473,-1.8439 -1.9297,-1.8439 -1.71504,0 -3.13001,0.81481 -6.21875,3.04458 l -0.47166,-3.04458 m -15.384,0.9415 c 0.89807,0.77173 3.08585,1.60029 3.13001,2.873 v 15.17767 h 3.51624 v -18.77933 l -0.0429,-0.2144 -6.60245,0.94331 m 7.31916,-6.69294 c 0,1.29551 -1.05009,2.3456 -2.34561,2.3456 -1.29551,0 -2.3456,-1.05009 -2.3456,-2.3456 0,-1.29552 1.05009,-2.34561 2.3456,-2.34561 1.29552,0 2.34561,1.05009 2.34561,2.34561 z M 86.062358,-546 c 0.700359,0.47166 1.400715,0.94333 2.10107,1.415 l 5.531394,13.42114 4.716694,12.73506 2.615624,0 5.35987,-13.72128 c 1.71516,-4.45942 4.41655,-10.8484 5.48852,-12.99234 l 0.94334,-0.85758 -2.74426,0 0.0429,0.21439 -4.24502,11.62022 -4.75958,11.44869 -0.55742,-0.0858 -4.073509,-10.24808 -4.759573,-12.2634 c -0.04288,-0.25728 -0.04288,-0.47167 -0.04288,-0.68606 l -5.61715,0"
           style="text-align:start;fill:#4e9a06;stroke-width:0;stroke-miterlimit:4"
           id="path100" />
      </g>
    </g>
  </g>
</svg>
