<svg xmlns="http://www.w3.org/2000/svg" xmlns:xlink="http://www.w3.org/1999/xlink" preserveAspectRatio="xMinYMin meet" viewBox="0 0 448.39087 174.55663" height="100%" width="100%"><defs><path id="X" d="m534.5172 440.00751a48.40129 18.781684 0 1 1 -96.80099 0 48.40129 18.781684 0 1 1 96.80099 0"/><path id="Y" d="m482.09 382.73l-12.79 10.296-27.05 10.658 13.889-12.987 25.953-7.968z" stroke-linejoin="round" fill="#b1883f" stroke="#746137" fill-rule="evenodd" stroke-width="1.895"/><path id="Z" d="m494.67 400.47v24.417c8.724-35.838 25.16-23.07 24.487-31.784l-24.487 7.367"/><path id="a" d="m493.32 399.77l-36.805-8.792-.246 47.04 37.05 8.788v-47.04z" stroke-linejoin="round" stroke="#746137" stroke-linecap="square" stroke-width="1.895" fill="#c7a465"/><path id="b" d="m474.32 428.77c6.668 9.925 13.156-6.358 13.143-15.252-.015-10.55-8.412-14.474-13.223-13.333-7.727 1.833-15.05 11.727-14.989 22.837.064 12.299 8.484 17.09 15.09 15.508-1.495.084-6.483-.081-6.604-14.674-.083-9.912 2.493-14.501 6.519-13.708.09.021 4.437 1.175 4.45 8.302.013 7.08-4.385 10.318-4.385 10.318"/><path id="c" d="m474.26 410.14c-4.418-.892-9.806 5.03-9.766 14.296.065 15.07 8.842 14.334 9.904 14.08 7.67-1.832 14.97-11.638 14.97-22.705 0-12.351-8.424-17.217-15.07-15.641 1.84-.763 9.922.193 9.935 14.265.008 9.14-5.987 15.535-9.897 14.346-.09-.021-4.428-1.161-4.452-8.271-.024-7.097 4.376-10.371 4.376-10.371"/><path id="d" d="m588.69 406.2s0 103.07 0 103.07c0 0 79.25 19.14 79.25 19.14 0 0 0-77.989 0-77.989 0 0-49.42-37.02-49.42-37.02 0 0-29.822-7.203-29.822-7.203" stroke="#000" fill="#6a9d00" stroke-width="3.903"/><path id="e" d="m656.19 457.73s11.834-10.819 11.834-10.819c0 0-48.14-32.15-48.14-32.15 0 0 36.31 42.974 36.31 42.974" stroke-linejoin="round" stroke="#000" fill="#6a9d00" stroke-linecap="round" stroke-width="3.903"/><path id="f" d="m603.74 418.8c-3.179-1.827-7.07-.234-7.07 4.84 0 8.286 6.349 10.571 7.119 10.757 5.557 1.342 10.85-1.821 10.85-7.898 0-6.754-6.067-11.961-10.85-13.12 1.325.143 7.14 3.111 7.14 10.797 0 5.01-4.342 6.692-7.167 4.844-.065-.039-3.196-1.989-3.196-5.891 0-3.885 3.176-4.334 3.176-4.334"/><linearGradient xlink:href="#7" id="M" gradientUnits="userSpaceOnUse" x1="671.71" y1="368.76" x2="673.95" y2="380.77"/><linearGradient xlink:href="#5" id="L" gradientUnits="userSpaceOnUse" x1="659.43" y1="310.81" x2="658.03" y2="441.26"/><linearGradient xlink:href="#7" id="F" gradientUnits="userSpaceOnUse" x1="482.78" y1="382" x2="485.02" y2="394.01"/><linearGradient xlink:href="#9" id="J" gradientUnits="userSpaceOnUse" gradientTransform="matrix(0-.1564-.15638 0 547.66 324.17)" x1="-704.14" y1="408.55" x2="-487.3" y2="515.5"/><linearGradient xlink:href="#9" id="H" gradientUnits="userSpaceOnUse" gradientTransform="matrix(.10702 0 0 .107 674.9 385.02)" x1="-561.41" y1="513.69" x2="-820.81" y2="164.69"/><linearGradient xlink:href="#1" id="W" gradientUnits="userSpaceOnUse" x1="186.92" y1="464.44" x2="186.64" y2="467.72"/><linearGradient xlink:href="#9" id="I" gradientUnits="userSpaceOnUse" gradientTransform="matrix(0-.1564-.15638 0 547.66 324.17)" x1="-520.83" y1="556.49" x2="-728.36" y2="384.33"/><linearGradient xlink:href="#9" id="N" gradientUnits="userSpaceOnUse" gradientTransform="matrix(0-.1564-.15638 0 736.59 310.93)" x1="-520.83" y1="556.49" x2="-728.36" y2="384.33"/><linearGradient xlink:href="#9" id="V" gradientUnits="userSpaceOnUse" gradientTransform="matrix(0-.1564-.15638 0 547.66 324.17)" x1="-704.14" y1="408.55" x2="-487.3" y2="515.5"/><linearGradient xlink:href="#9" id="U" gradientUnits="userSpaceOnUse" gradientTransform="matrix(0-.1564-.15638 0 547.66 324.17)" x1="-520.83" y1="556.49" x2="-728.36" y2="384.33"/><linearGradient xlink:href="#9" id="O" gradientUnits="userSpaceOnUse" gradientTransform="matrix(0-.1564-.15638 0 736.59 310.93)" x1="-704.14" y1="408.55" x2="-487.3" y2="515.5"/><linearGradient xlink:href="#9" id="T" gradientUnits="userSpaceOnUse" gradientTransform="matrix(.10702 0 0 .107 674.9 385.02)" x1="-561.41" y1="513.69" x2="-820.81" y2="164.69"/><linearGradient xlink:href="#7" id="R" gradientUnits="userSpaceOnUse" x1="482.78" y1="382" x2="485.02" y2="394.01"/><linearGradient xlink:href="#5" id="Q" gradientUnits="userSpaceOnUse" x1="470.51" y1="324.05" x2="469.11" y2="454.5"/><linearGradient xlink:href="#9" id="S" gradientUnits="userSpaceOnUse" gradientTransform="matrix(.10702 0 0 .107 674.9 385.02)" x1="-751.03" y1="256.87" x2="-603.64" y2="471.21"/><linearGradient xlink:href="#9" id="G" gradientUnits="userSpaceOnUse" gradientTransform="matrix(.10702 0 0 .107 674.9 385.02)" x1="-751.03" y1="256.87" x2="-603.64" y2="471.21"/><linearGradient id="7" x1="-86.26" gradientUnits="userSpaceOnUse" y1="54.1" x2="-85.08" y2="60.44"><stop stop-color="#b1883f"/><stop stop-color="#b1883f" stop-opacity="0" offset="1"/></linearGradient><linearGradient xlink:href="#9" id="8" gradientUnits="userSpaceOnUse" gradientTransform="matrix(.10702 0 0 .107 674.9 385.02)" x1="-751.03" y1="256.87" x2="-603.64" y2="471.21"/><linearGradient id="5" x1="-92.74" gradientUnits="userSpaceOnUse" y1="23.521" x2="-93.47" y2="92.37"><stop stop-color="#fff" stop-opacity=".668"/><stop stop-color="#fff" stop-opacity="0" offset="1"/></linearGradient><linearGradient id="1"><stop stop-color="#232323"/><stop offset="1" stop-color="#474747"/></linearGradient><linearGradient y2="395.79" x2="392.2" y1="392.51" x1="391.92" gradientUnits="userSpaceOnUse" id="0" xlink:href="#1"/><linearGradient xlink:href="#5" id="4" gradientUnits="userSpaceOnUse" x1="470.51" y1="324.05" x2="469.11" y2="454.5"/><linearGradient xlink:href="#7" id="6" gradientUnits="userSpaceOnUse" x1="482.78" y1="382" x2="485.02" y2="394.01"/><linearGradient xlink:href="#9" id="B" gradientUnits="userSpaceOnUse" gradientTransform="matrix(0-.1564-.15638 0 547.66 324.17)" x1="-520.83" y1="556.49" x2="-728.36" y2="384.33"/><linearGradient xlink:href="#9" id="C" gradientUnits="userSpaceOnUse" gradientTransform="matrix(0-.1564-.15638 0 547.66 324.17)" x1="-704.14" y1="408.55" x2="-487.3" y2="515.5"/><linearGradient xlink:href="#9" id="A" gradientUnits="userSpaceOnUse" gradientTransform="matrix(.10702 0 0 .107 674.9 385.02)" x1="-561.41" y1="513.69" x2="-820.81" y2="164.69"/><linearGradient xlink:href="#5" id="E" gradientUnits="userSpaceOnUse" x1="470.51" y1="324.05" x2="469.11" y2="454.5"/><linearGradient id="9"><stop/><stop offset="1" stop-color="#fff"/></linearGradient><radialGradient xlink:href="#3" id="2" gradientUnits="userSpaceOnUse" gradientTransform="matrix(.8054 0 0 .20643 534.12 332.23)" cx="-59.6" cy="522.12" r="61.17"/><radialGradient id="3" gradientUnits="userSpaceOnUse" cy="522.12" cx="-59.6" gradientTransform="matrix(1.0178 0 0 .13108 127.26 37.24)" r="61.17"><stop stop-opacity=".208"/><stop stop-opacity="0" offset="1"/></radialGradient><radialGradient xlink:href="#3" id="P" gradientUnits="userSpaceOnUse" gradientTransform="matrix(.8054 0 0 .20643 534.12 332.23)" cx="-59.6" cy="522.12" r="61.17"/><radialGradient xlink:href="#3" id="D" gradientUnits="userSpaceOnUse" gradientTransform="matrix(.8054 0 0 .20643 534.12 332.23)" cx="-59.6" cy="522.12" r="61.17"/><radialGradient xlink:href="#3" id="K" gradientUnits="userSpaceOnUse" gradientTransform="matrix(.8054 0 0 .20643 723.05 318.99)" cx="-59.6" cy="522.12" r="61.17"/></defs><g transform="translate(1621.76 423.47)"><g transform="translate(-1824.82-831.92)"><text y="462.33" x="218.7" transform="matrix(1 .00055-.00055 1 0 0)" font-family="Yanone Kaffeesatz" word-spacing="0" line-height="125%" letter-spacing="0" font-size="19.961"><tspan y="462.33" x="218.7">Reboot</tspan></text><path d="m211.85 463.74l63.23-.89.18-1.856 3.78 3.044-4.311 2.422.174-1.791-65.63.89z" fill="url(#W)" stroke="#000" stroke-width=".749"/></g><g transform="translate(-1712.88-789.62)"><use fill="url(#P)" fill-rule="evenodd" color="#000" xlink:href="#X"/><g><use xlink:href="#Y"/><path d="m483.35 382.39l37.3 8.928-27.461 8.03-37.28-8.631 27.435-8.324z" fill="#82642f" stroke="#746137" stroke-linejoin="round" stroke-linecap="square" stroke-width="1.895"/><g fill-rule="evenodd"><use opacity=".812" fill="url(#Q)" xlink:href="#Z"/><path d="m517.94 391.87s-34.836-8.04-34.836-8.04l-22.622 6.937c27 8.527 33.773-2.924 57.46 1.103" fill="url(#R)"/></g><g transform="matrix(.39784 0 0 .39784 249.1 210.3)"><use xlink:href="#d"/><path d="m651.42 470.24s14.183-15.14 14.183-15.14c0 0-49.37-38.557-49.37-38.557 0 0 33.36 51.02 33.36 51.02 0 0 1.834 2.676 1.834 2.676" fill="#6a7a00"/><use xlink:href="#e"/><g fill-rule="evenodd" color="#000"><path d="m603.74 429.01c4.811 7.503 9.518.529 9.511-4.351-.008-5.769-6.05-10.453-9.515-11.289-5.557-1.342-10.85 1.821-10.85 7.898 0 6.754 6.067 11.961 10.85 13.12-1.082-.412-4.689-2.031-4.738-10.08-.033-5.442 1.833-7.162 4.73-5.507.065.039 3.196 1.989 3.196 5.891 0 3.885-3.184 4.319-3.184 4.319" fill="url(#S)"/><use fill="url(#T)" xlink:href="#f"/></g></g><use xlink:href="#a"/><path d="m493.7 399.85l26.558-7.983.169 46.23-26.656 8.623-.07-46.866z" fill="#c7a465" stroke="#746137" stroke-linejoin="round" stroke-linecap="square" stroke-width="1.895"/><g fill-rule="evenodd"><use fill="url(#U)" color="#000" xlink:href="#b"/><path d="m505.41 417.61s-11.858-17.349-11.858-17.349l27.85-8.373c0 0 9.574 16.629 9.574 16.629 0 0-25.567 9.09-25.567 9.09z" fill="#b1883f" stroke="#746137" stroke-linejoin="round" stroke-width="1.895"/><use fill="url(#V)" color="#000" xlink:href="#c"/><path d="m491.95 400.49v24.418c-6.209 6.279-35.17-40.687-34.804 3.145l.013-35.878 34.791 8.314" opacity=".812" fill="url(#Q)"/></g></g></g><g transform="translate(-2078.76-781.55)"><g fill-rule="evenodd"><path d="m723.443 426.76929a48.40129 18.781684 0 1 1 -96.80099 0 48.40129 18.781684 0 1 1 96.80099 0" fill="url(#K)" color="#000"/><path d="m671.02 369.49l-12.79 10.296-27.05 10.658 13.889-12.987 25.953-7.968z" fill="#b1883f" stroke="#746137" stroke-linejoin="round" stroke-width="1.895"/></g><path d="m672.27 369.16l37.3 8.928-27.461 8.03-37.28-8.631 27.435-8.324z" fill="#82642f" stroke="#746137" stroke-linejoin="round" stroke-linecap="square" stroke-width="1.895"/><g fill-rule="evenodd"><path d="m683.59 387.23v24.417c8.724-35.838 25.16-23.07 24.487-31.784l-24.487 7.367" opacity=".812" fill="url(#L)"/><path d="m706.86 378.64s-34.836-8.04-34.836-8.04l-22.622 6.937c27 8.527 33.773-2.924 57.46 1.103" fill="url(#M)"/></g><g fill="#c7a465" stroke="#746137" stroke-linejoin="round" stroke-linecap="square" stroke-width="1.895"><path d="m682.24 386.53l-36.805-8.792-.246 47.04 37.05 8.788v-47.04z"/><path d="m682.63 386.61l26.558-7.983.169 46.23-26.656 8.623-.07-46.866z"/></g><g fill-rule="evenodd"><path d="m663.24 415.53c6.668 9.925 13.156-6.358 13.143-15.252-.015-10.55-8.412-14.474-13.223-13.333-7.727 1.833-15.05 11.727-14.989 22.837.064 12.299 8.484 17.09 15.09 15.508-1.495.084-6.483-.081-6.604-14.674-.083-9.912 2.493-14.501 6.519-13.708.09.021 4.437 1.175 4.45 8.302.013 7.08-4.385 10.318-4.385 10.318" fill="url(#N)" color="#000"/><path d="m694.34 404.37s-11.858-17.349-11.858-17.349l27.85-8.373c0 0 9.574 16.629 9.574 16.629 0 0-25.567 9.09-25.567 9.09z" fill="#b1883f" stroke="#746137" stroke-linejoin="round" stroke-width="1.895"/><path d="m663.19 396.9c-4.418-.892-9.806 5.03-9.766 14.296.065 15.07 8.842 14.334 9.904 14.08 7.67-1.832 14.97-11.638 14.97-22.705 0-12.351-8.424-17.217-15.07-15.641 1.84-.763 9.922.193 9.935 14.265.008 9.14-5.987 15.535-9.897 14.346-.09-.021-4.428-1.161-4.452-8.271-.024-7.097 4.376-10.371 4.376-10.371" fill="url(#O)" color="#000"/><path d="m680.88 387.25v24.418c-6.209 6.279-35.17-40.687-34.804 3.145l.013-35.878 34.791 8.314" opacity=".812" fill="url(#L)"/></g></g><g transform="translate(-1889.83-712.81)"><use fill="url(#D)" fill-rule="evenodd" color="#000" xlink:href="#X"/><g><use xlink:href="#Y"/><path d="m483.35 382.39l37.3 8.928-27.461 8.03-37.28-8.631 27.435-8.324z" fill="#82642f" stroke="#746137" stroke-linejoin="round" stroke-linecap="square" stroke-width="1.895" id="g"/><g fill-rule="evenodd"><use opacity=".812" fill="url(#E)" xlink:href="#Z"/><path d="m517.94 391.87s-34.836-8.04-34.836-8.04l-22.622 6.937c27 8.527 33.773-2.924 57.46 1.103" fill="url(#F)"/></g><g transform="matrix(.39784 0 0 .39784 249.1 210.3)"><use xlink:href="#d"/><path d="m651.42 470.24s14.183-15.14 14.183-15.14c0 0-49.37-38.557-49.37-38.557 0 0 33.36 51.02 33.36 51.02 0 0 1.834 2.676 1.834 2.676" fill="#6a7a00"/><use xlink:href="#e"/><g fill-rule="evenodd" color="#000"><path d="m603.74 429.01c4.811 7.503 9.518.529 9.511-4.351-.008-5.769-6.05-10.453-9.515-11.289-5.557-1.342-10.85 1.821-10.85 7.898 0 6.754 6.067 11.961 10.85 13.12-1.082-.412-4.689-2.031-4.738-10.08-.033-5.442 1.833-7.162 4.73-5.507.065.039 3.196 1.989 3.196 5.891 0 3.885-3.184 4.319-3.184 4.319" fill="url(#G)"/><use fill="url(#H)" xlink:href="#f"/></g></g><use xlink:href="#a"/><path d="m493.7 399.85l26.558-7.983.169 46.23-26.656 8.623-.07-46.866z" fill="#c7a465" stroke="#746137" stroke-linejoin="round" stroke-linecap="square" stroke-width="1.895" id="h"/><use fill="url(#I)" fill-rule="evenodd" color="#000" xlink:href="#b"/><path d="m505.41 417.61s-11.858-17.349-11.858-17.349l27.85-8.373c0 0 9.574 16.629 9.574 16.629 0 0-25.567 9.09-25.567 9.09z" fill="#b1883f" fill-rule="evenodd" stroke="#746137" stroke-linejoin="round" stroke-width="1.895" id="i"/><g fill-rule="evenodd"><use fill="url(#J)" color="#000" xlink:href="#c"/><path d="m491.95 400.49v24.418c-6.209 6.279-35.17-40.687-34.804 3.145l.013-35.878 34.791 8.314" opacity=".812" fill="url(#E)"/></g></g></g><g transform="translate(-1712.88-712.81)"><use fill="url(#2)" fill-rule="evenodd" color="#000" xlink:href="#X"/><g><use xlink:href="#Y"/><use xlink:href="#g"/><g fill-rule="evenodd"><use opacity=".812" fill="url(#4)" xlink:href="#Z"/><path d="m517.94 391.87s-34.836-8.04-34.836-8.04l-22.622 6.937c27 8.527 33.773-2.924 57.46 1.103" fill="url(#6)"/></g><g transform="matrix(.39784 0 0 .39784 249.1 210.3)"><use xlink:href="#d"/><path d="m651.42 470.24s14.183-15.14 14.183-15.14c0 0-49.37-38.557-49.37-38.557 0 0 33.36 51.02 33.36 51.02 0 0 1.834 2.676 1.834 2.676" fill="#6a7a00"/><use xlink:href="#e"/><g fill-rule="evenodd" color="#000"><path d="m603.74 429.01c4.811 7.503 9.518.529 9.511-4.351-.008-5.769-6.05-10.453-9.515-11.289-5.557-1.342-10.85 1.821-10.85 7.898 0 6.754 6.067 11.961 10.85 13.12-1.082-.412-4.689-2.031-4.738-10.08-.033-5.442 1.833-7.162 4.73-5.507.065.039 3.196 1.989 3.196 5.891 0 3.885-3.184 4.319-3.184 4.319" fill="url(#8)"/><use fill="url(#A)" xlink:href="#f"/></g></g><use xlink:href="#a"/><use xlink:href="#h"/><use fill="url(#B)" fill-rule="evenodd" color="#000" xlink:href="#b"/><use xlink:href="#i"/><g fill-rule="evenodd"><use fill="url(#C)" color="#000" xlink:href="#c"/><path d="m491.95 400.49v24.418c-6.209 6.279-35.17-40.687-34.804 3.145l.013-35.878 34.791 8.314" opacity=".812" fill="url(#4)"/></g></g></g><g transform="translate(-1627.4-701.69)"><g transform="translate(71.72 15.15)"><path d="m215.78 415.04l7.28-20.681-14.394-18.365 21.674 1.158 13.236-19.854 5.625 21.01 22.17 6.784-18.2 12.243.993 22.832-16.711-13.236z" fill="#6a9d00"/><g font-family="Yanone Kaffeesatz" word-spacing="0" line-height="125%" letter-spacing="0" font-size="15.439"><text x="220.28" y="390.72"><tspan x="220.28" y="390.72">webserv</tspan></text><text x="231.27" y="403.1"><tspan x="231.27" y="403.1">net</tspan></text></g></g><text transform="matrix(1 .00055-.00055 1 0 0)" x="266.64" y="390.38" font-family="Yanone Kaffeesatz" word-spacing="0" line-height="125%" letter-spacing="0" font-size="19.961"><tspan x="266.64" y="390.38">SetupNetworks</tspan></text><path d="m364.99 391.81l-101.77-.89-.18-1.856-3.78 3.044 4.311 2.422-.174-1.791 104.17.89z" fill="url(#0)" stroke="#000" stroke-width=".749"/></g></g></svg>
